<svg width="952" height="315" viewBox="0 0 952 315" fill="none" xmlns="http://www.w3.org/2000/svg">
<rect x="99.5" y="99.5" width="355" height="117" rx="22.5" fill="white" stroke="black" stroke-width="3"/>
<path d="M212.468 160.448H219.452V183.776C218.876 183.968 218.036 184.184 216.932 184.424C215.876 184.664 214.628 184.904 213.188 185.144C211.796 185.384 210.26 185.576 208.58 185.72C206.9 185.912 205.196 186.008 203.468 186.008C199.964 186.008 196.772 185.432 193.892 184.28C191.012 183.128 188.54 181.448 186.476 179.24C184.412 177.032 182.804 174.32 181.652 171.104C180.548 167.888 179.996 164.192 179.996 160.016C179.996 155.84 180.62 152.144 181.868 148.928C183.164 145.664 184.892 142.928 187.052 140.72C189.212 138.512 191.732 136.832 194.612 135.68C197.54 134.528 200.66 133.952 203.972 133.952C206.228 133.952 208.22 134.096 209.948 134.384C211.724 134.672 213.236 135.008 214.484 135.392C215.732 135.776 216.74 136.16 217.508 136.544C218.324 136.928 218.876 137.216 219.164 137.408L216.932 143.24C215.54 142.328 213.692 141.584 211.388 141.008C209.084 140.384 206.732 140.072 204.332 140.072C201.788 140.072 199.46 140.528 197.348 141.44C195.284 142.352 193.508 143.672 192.02 145.4C190.58 147.128 189.452 149.24 188.636 151.736C187.82 154.184 187.412 156.944 187.412 160.016C187.412 162.992 187.748 165.704 188.42 168.152C189.14 170.6 190.196 172.712 191.588 174.488C193.028 176.216 194.78 177.56 196.844 178.52C198.956 179.48 201.428 179.96 204.26 179.96C206.276 179.96 207.98 179.864 209.372 179.672C210.812 179.432 211.844 179.216 212.468 179.024V160.448ZM243.779 146.768C244.355 146.768 245.003 146.816 245.723 146.912C246.491 146.96 247.235 147.056 247.955 147.2C248.675 147.296 249.323 147.416 249.899 147.56C250.523 147.656 250.979 147.752 251.267 147.848L250.115 153.68C249.587 153.488 248.699 153.272 247.451 153.032C246.251 152.744 244.691 152.6 242.771 152.6C241.523 152.6 240.275 152.744 239.027 153.032C237.827 153.272 237.035 153.44 236.651 153.536V185H229.955V149.144C231.539 148.568 233.507 148.04 235.859 147.56C238.211 147.032 240.851 146.768 243.779 146.768ZM290.777 166.28C290.777 169.256 290.345 171.944 289.481 174.344C288.617 176.744 287.393 178.808 285.809 180.536C284.273 182.264 282.425 183.608 280.265 184.568C278.105 185.48 275.753 185.936 273.209 185.936C270.665 185.936 268.313 185.48 266.153 184.568C263.993 183.608 262.121 182.264 260.537 180.536C259.001 178.808 257.801 176.744 256.937 174.344C256.073 171.944 255.641 169.256 255.641 166.28C255.641 163.352 256.073 160.688 256.937 158.288C257.801 155.84 259.001 153.752 260.537 152.024C262.121 150.296 263.993 148.976 266.153 148.064C268.313 147.104 270.665 146.624 273.209 146.624C275.753 146.624 278.105 147.104 280.265 148.064C282.425 148.976 284.273 150.296 285.809 152.024C287.393 153.752 288.617 155.84 289.481 158.288C290.345 160.688 290.777 163.352 290.777 166.28ZM283.793 166.28C283.793 162.056 282.833 158.72 280.913 156.272C279.041 153.776 276.473 152.528 273.209 152.528C269.945 152.528 267.353 153.776 265.433 156.272C263.561 158.72 262.625 162.056 262.625 166.28C262.625 170.504 263.561 173.864 265.433 176.36C267.353 178.808 269.945 180.032 273.209 180.032C276.473 180.032 279.041 178.808 280.913 176.36C282.833 173.864 283.793 170.504 283.793 166.28ZM330.006 183.92C328.47 184.304 326.43 184.712 323.886 185.144C321.39 185.576 318.486 185.792 315.174 185.792C312.294 185.792 309.87 185.384 307.902 184.568C305.934 183.704 304.35 182.504 303.15 180.968C301.95 179.432 301.086 177.632 300.558 175.568C300.03 173.456 299.766 171.128 299.766 168.584V147.56H306.462V167.144C306.462 171.704 307.182 174.968 308.622 176.936C310.062 178.904 312.486 179.888 315.894 179.888C316.614 179.888 317.358 179.864 318.126 179.816C318.894 179.768 319.614 179.72 320.286 179.672C320.958 179.576 321.558 179.504 322.086 179.456C322.662 179.36 323.07 179.264 323.31 179.168V147.56H330.006V183.92ZM367.533 166.352C367.533 161.984 366.453 158.624 364.293 156.272C362.133 153.92 359.253 152.744 355.653 152.744C353.637 152.744 352.053 152.816 350.901 152.96C349.797 153.104 348.909 153.272 348.237 153.464V177.08C349.053 177.752 350.229 178.4 351.765 179.024C353.301 179.648 354.981 179.96 356.805 179.96C358.725 179.96 360.357 179.624 361.701 178.952C363.093 178.232 364.221 177.272 365.085 176.072C365.949 174.824 366.573 173.384 366.957 171.752C367.341 170.072 367.533 168.272 367.533 166.352ZM374.517 166.352C374.517 169.184 374.133 171.8 373.365 174.2C372.645 176.6 371.565 178.664 370.125 180.392C368.685 182.12 366.909 183.464 364.797 184.424C362.733 185.384 360.357 185.864 357.669 185.864C355.509 185.864 353.589 185.576 351.909 185C350.277 184.424 349.053 183.872 348.237 183.344V198.32H341.541V148.712C343.125 148.328 345.093 147.92 347.445 147.488C349.845 147.008 352.605 146.768 355.725 146.768C358.605 146.768 361.197 147.224 363.501 148.136C365.805 149.048 367.773 150.344 369.405 152.024C371.037 153.704 372.285 155.768 373.149 158.216C374.061 160.616 374.517 163.328 374.517 166.352Z" fill="black"/>
<g filter="url(#filter0_d_201_27)">
<rect x="469.5" y="99.5" width="383" height="117" rx="22.5" fill="black" stroke="black" stroke-width="3"/>
<path d="M566.469 185.432C565.461 185.432 564.357 185.408 563.157 185.36C562.005 185.312 560.829 185.24 559.629 185.144C558.477 185.048 557.325 184.928 556.173 184.784C555.021 184.64 553.965 184.448 553.005 184.208V135.824C553.965 135.584 555.021 135.392 556.173 135.248C557.325 135.104 558.477 134.984 559.629 134.888C560.829 134.792 562.005 134.72 563.157 134.672C564.309 134.624 565.389 134.6 566.397 134.6C569.277 134.6 571.965 134.816 574.461 135.248C577.005 135.68 579.189 136.424 581.013 137.48C582.885 138.488 584.349 139.832 585.405 141.512C586.461 143.192 586.989 145.256 586.989 147.704C586.989 150.44 586.341 152.696 585.045 154.472C583.749 156.2 582.021 157.496 579.861 158.36C582.789 159.224 585.117 160.592 586.845 162.464C588.573 164.336 589.437 166.976 589.437 170.384C589.437 175.376 587.589 179.144 583.893 181.688C580.245 184.184 574.437 185.432 566.469 185.432ZM559.917 161.744V179.312C560.445 179.36 561.069 179.408 561.789 179.456C562.413 179.504 563.133 179.552 563.949 179.6C564.813 179.6 565.797 179.6 566.901 179.6C568.965 179.6 570.909 179.48 572.733 179.24C574.605 178.952 576.237 178.472 577.629 177.8C579.021 177.128 580.125 176.192 580.941 174.992C581.805 173.792 582.237 172.28 582.237 170.456C582.237 168.824 581.925 167.456 581.301 166.352C580.677 165.2 579.765 164.288 578.565 163.616C577.413 162.944 576.021 162.464 574.389 162.176C572.757 161.888 570.933 161.744 568.917 161.744H559.917ZM559.917 156.128H567.261C568.989 156.128 570.621 156.008 572.157 155.768C573.693 155.528 575.013 155.096 576.117 154.472C577.269 153.848 578.157 153.032 578.781 152.024C579.453 151.016 579.789 149.744 579.789 148.208C579.789 146.768 579.453 145.568 578.781 144.608C578.109 143.6 577.173 142.808 575.973 142.232C574.821 141.608 573.453 141.152 571.869 140.864C570.285 140.576 568.605 140.432 566.829 140.432C565.053 140.432 563.661 140.456 562.653 140.504C561.645 140.552 560.733 140.624 559.917 140.72V156.128ZM628.646 183.92C627.11 184.304 625.07 184.712 622.526 185.144C620.03 185.576 617.126 185.792 613.814 185.792C610.934 185.792 608.51 185.384 606.542 184.568C604.574 183.704 602.99 182.504 601.79 180.968C600.59 179.432 599.726 177.632 599.198 175.568C598.67 173.456 598.406 171.128 598.406 168.584V147.56H605.102V167.144C605.102 171.704 605.822 174.968 607.262 176.936C608.702 178.904 611.126 179.888 614.534 179.888C615.254 179.888 615.998 179.864 616.766 179.816C617.534 179.768 618.254 179.72 618.926 179.672C619.598 179.576 620.198 179.504 620.726 179.456C621.302 179.36 621.71 179.264 621.95 179.168V147.56H628.646V183.92ZM646.446 147.56H660.63V153.176H646.446V170.456C646.446 172.328 646.59 173.888 646.878 175.136C647.166 176.336 647.598 177.296 648.174 178.016C648.75 178.688 649.47 179.168 650.334 179.456C651.198 179.744 652.206 179.888 653.358 179.888C655.374 179.888 656.982 179.672 658.182 179.24C659.43 178.76 660.294 178.424 660.774 178.232L662.07 183.776C661.398 184.112 660.222 184.52 658.542 185C656.862 185.528 654.942 185.792 652.782 185.792C650.238 185.792 648.126 185.48 646.446 184.856C644.814 184.184 643.494 183.2 642.486 181.904C641.478 180.608 640.758 179.024 640.326 177.152C639.942 175.232 639.75 173.024 639.75 170.528V137.12L646.446 135.968V147.56ZM675.415 147.56H689.599V153.176H675.415V170.456C675.415 172.328 675.559 173.888 675.847 175.136C676.135 176.336 676.567 177.296 677.143 178.016C677.719 178.688 678.439 179.168 679.303 179.456C680.167 179.744 681.175 179.888 682.327 179.888C684.343 179.888 685.951 179.672 687.151 179.24C688.399 178.76 689.263 178.424 689.743 178.232L691.039 183.776C690.367 184.112 689.191 184.52 687.511 185C685.831 185.528 683.911 185.792 681.751 185.792C679.207 185.792 677.095 185.48 675.415 184.856C673.783 184.184 672.463 183.2 671.455 181.904C670.447 180.608 669.727 179.024 669.295 177.152C668.911 175.232 668.719 173.024 668.719 170.528V137.12L675.415 135.968V147.56ZM730.183 166.28C730.183 169.256 729.751 171.944 728.887 174.344C728.023 176.744 726.799 178.808 725.215 180.536C723.679 182.264 721.831 183.608 719.671 184.568C717.511 185.48 715.159 185.936 712.615 185.936C710.071 185.936 707.719 185.48 705.559 184.568C703.399 183.608 701.527 182.264 699.943 180.536C698.407 178.808 697.207 176.744 696.343 174.344C695.479 171.944 695.047 169.256 695.047 166.28C695.047 163.352 695.479 160.688 696.343 158.288C697.207 155.84 698.407 153.752 699.943 152.024C701.527 150.296 703.399 148.976 705.559 148.064C707.719 147.104 710.071 146.624 712.615 146.624C715.159 146.624 717.511 147.104 719.671 148.064C721.831 148.976 723.679 150.296 725.215 152.024C726.799 153.752 728.023 155.84 728.887 158.288C729.751 160.688 730.183 163.352 730.183 166.28ZM723.199 166.28C723.199 162.056 722.239 158.72 720.319 156.272C718.447 153.776 715.879 152.528 712.615 152.528C709.351 152.528 706.759 153.776 704.839 156.272C702.967 158.72 702.031 162.056 702.031 166.28C702.031 170.504 702.967 173.864 704.839 176.36C706.759 178.808 709.351 180.032 712.615 180.032C715.879 180.032 718.447 178.808 720.319 176.36C722.239 173.864 723.199 170.504 723.199 166.28ZM739.604 148.64C741.14 148.256 743.18 147.848 745.724 147.416C748.268 146.984 751.196 146.768 754.508 146.768C757.484 146.768 759.956 147.2 761.924 148.064C763.892 148.88 765.452 150.056 766.604 151.592C767.804 153.08 768.644 154.88 769.124 156.992C769.604 159.104 769.844 161.432 769.844 163.976V185H763.148V165.416C763.148 163.112 762.98 161.144 762.644 159.512C762.356 157.88 761.852 156.56 761.132 155.552C760.412 154.544 759.452 153.824 758.252 153.392C757.052 152.912 755.564 152.672 753.788 152.672C753.068 152.672 752.324 152.696 751.556 152.744C750.788 152.792 750.044 152.864 749.324 152.96C748.652 153.008 748.028 153.08 747.452 153.176C746.924 153.272 746.54 153.344 746.3 153.392V185H739.604V148.64Z" fill="white"/>
</g>
<g filter="url(#filter1_d_201_27)">
<path d="M843.03 268.082L821.585 188.049L895.157 230.525L861.143 239.64L859.276 240.676L843.03 268.082Z" fill="white"/>
</g>
<path d="M829.804 198.713L844.815 254.737L855.935 236.21L857.801 235.174L881.812 228.74L829.804 198.713Z" fill="black"/>
<defs>
<filter id="filter0_d_201_27" x="438" y="78" width="446" height="180" filterUnits="userSpaceOnUse" color-interpolation-filters="sRGB">
<feFlood flood-opacity="0" result="BackgroundImageFix"/>
<feColorMatrix in="SourceAlpha" type="matrix" values="0 0 0 0 0 0 0 0 0 0 0 0 0 0 0 0 0 0 127 0" result="hardAlpha"/>
<feOffset dy="10"/>
<feGaussianBlur stdDeviation="15"/>
<feComposite in2="hardAlpha" operator="out"/>
<feColorMatrix type="matrix" values="0 0 0 0 0 0 0 0 0 0 0 0 0 0 0 0 0 0 0.4 0"/>
<feBlend mode="normal" in2="BackgroundImageFix" result="effect1_dropShadow_201_27"/>
<feBlend mode="normal" in="SourceGraphic" in2="effect1_dropShadow_201_27" result="shape"/>
</filter>
<filter id="filter1_d_201_27" x="806.585" y="177.049" width="103.572" height="110.034" filterUnits="userSpaceOnUse" color-interpolation-filters="sRGB">
<feFlood flood-opacity="0" result="BackgroundImageFix"/>
<feColorMatrix in="SourceAlpha" type="matrix" values="0 0 0 0 0 0 0 0 0 0 0 0 0 0 0 0 0 0 127 0" result="hardAlpha"/>
<feOffset dy="4"/>
<feGaussianBlur stdDeviation="7.5"/>
<feComposite in2="hardAlpha" operator="out"/>
<feColorMatrix type="matrix" values="0 0 0 0 0 0 0 0 0 0 0 0 0 0 0 0 0 0 0.2 0"/>
<feBlend mode="normal" in2="BackgroundImageFix" result="effect1_dropShadow_201_27"/>
<feBlend mode="normal" in="SourceGraphic" in2="effect1_dropShadow_201_27" result="shape"/>
</filter>
</defs>
</svg>
